{"title":"Matru Ki Bijlee Ka Mandola 2013 Hindi Cam rip New Source Sample ","uid":8009867,"size":746412032,"categoryP":"video","categoryS":"movies","magnet":"?xt=urn:btih:4ef8a30bdf6e9a1cc4d47c4df79a528e4df24247&amp;dn=Matru+Ki+Bijlee+Ka+Mandola+2013+Hindi+Cam+rip+New+Source+Sample+&amp;tr=udp%3A%2F%2Ftracker.openbittorrent.com%3A80&amp;tr=udp%3A%2F%2Fopen.demonii.com%3A1337&amp;tr=udp%3A%2F%2Ftracker.coppersurfer.tk%3A6969&amp;tr=udp%3A%2F%2Fexodus.desync.com%3A6969","seeders":1,"leechers":0,"uploader":"basicssom","files":2,"time":1357972125,"description":"Matru Ki Bijlee Ka Mandola 2013 Hindi Movies Cam rip New Source Sample Included ~ rDX\n\nScreen Shots :\n &lt;a href=&quot;\nhttp://myimghosting.serveftp.com/MatruKiBijleeKaMandola.html&quot; rel=&quot;nofollow&quot; target=&quot;_NEW&quot;&gt;\nhttp://myimghosting.serveftp.com/MatruKiBijleeKaMandola.html&lt;/a&gt;\n &lt;a href=&quot;\nhttp://myimghost.cwahi.net/MatruKiBijleeKaMandola.html&quot; rel=&quot;nofollow&quot; target=&quot;_NEW&quot;&gt;\nhttp://myimghost.cwahi.net/MatruKiBijleeKaMandola.html&lt;/a&gt;\n\n\nFormat                                   : MPEG-PS\nFile size                                : 706 MiB\nDuration                                 : 2h 16mn\nOverall bit rate mode                    : Variable\nOverall bit rate                         : 726 Kbps\n\n\nVideo\nID                                       : 224 (0xE0)\nFormat                                   : MPEG Video\nFormat version                           : Version 2\nFormat settings, BVOP                    : Yes\nFormat settings, Matrix                  : Custom\nFormat settings, GOP                     : Variable\nDuration                                 : 2h 16mn\nBit rate mode                            : Variable\nBit rate                                 : 643 Kbps\nWidth                                    : 352 pixels\nHeight                                   : 288 pixels\nDisplay aspect ratio                     : 1.222\nFrame rate                               : 25.000 fps\nStandard                                 : PAL\nColor space                              : YUV\nBit depth                                : 8 bits\nScan type                                : Progressive\nCompression mode                         : Lossy\nBits/(Pixel*Frame)                       : 0.254\nStream size                              : 630 MiB (89%)\n\n\nAudio\nID                                       : 192 (0xC0)\nFormat                                   : MPEG Audio\nFormat version                           : Version 1\nFormat profile                           : Layer 2\nDuration                                 : 2h 16mn\nBit rate mode                            : Constant\nBit rate                                 : 64.0 Kbps\nChannel(s)                               : 2 channels\nSampling rate                            : 48.0 KHz\nCompression mode                         : Lossy\nStream size                              : 62.3 MiB (9%)","torrent":{"xt":"urn:btih:4ef8a30bdf6e9a1cc4d47c4df79a528e4df24247","amp;dn":"Matru+Ki+Bijlee+Ka+Mandola+2013+Hindi+Cam+rip+New+Source+Sample+","amp;tr":["udp%3A%2F%2Ftracker.openbittorrent.com%3A80","udp%3A%2F%2Fopen.demonii.com%3A1337","udp%3A%2F%2Ftracker.coppersurfer.tk%3A6969","udp%3A%2F%2Fexodus.desync.com%3A6969"],"infoHash":"4ef8a30bdf6e9a1cc4d47c4df79a528e4df24247","infoHashBuffer":{"type":"Buffer","data":[78,248,163,11,223,110,154,28,196,212,124,77,247,154,82,142,77,242,66,71]},"announce":[],"urlList":[]}}